<?xml version="1.0" encoding="UTF-8"?>
<svg xmlns="http://www.w3.org/2000/svg" xmlns:xlink="http://www.w3.org/1999/xlink" viewBox="0 0 24 24" width="24px" height="24px">
<g id="surface1972867">
<path style=" stroke:none;fill-rule:nonzero;fill:rgb(100%,100%,100%);fill-opacity:1;" d="M 4.5 0 C 2.015625 0 0 2.015625 0 4.5 L 0 19.5 C 0 21.984375 2.015625 24 4.5 24 L 19.5 24 C 21.984375 24 24 21.984375 24 19.5 L 24 4.5 C 24 2.015625 21.984375 0 19.5 0 Z M 12.402344 2.539062 C 13.628906 2.539062 15.085938 3.726562 15.085938 9.402344 C 15.085938 11.433594 14.476562 14.476562 13.328125 16.902344 C 13.820312 17.585938 14.332031 17.882812 14.683594 17.882812 C 15.148438 17.78125 16.164062 15.925781 16.730469 14.132812 C 16.882812 13.648438 17.402344 13.378906 17.882812 13.527344 C 18.371094 13.679688 18.640625 14.195312 18.492188 14.683594 C 18.011719 16.199219 16.691406 19.730469 14.683594 19.730469 C 14.042969 19.730469 13.191406 19.410156 12.375 18.578125 C 11.457031 19.878906 10.296875 20.769531 8.941406 20.769531 C 6.070312 20.769531 4.789062 18.492188 4.789062 16.242188 C 4.789062 13.851562 6.003906 11.277344 8.652344 11.277344 C 9.105469 11.277344 9.507812 11.355469 9.867188 11.480469 C 9.8125 10.804688 9.777344 10.074219 9.777344 9.289062 C 9.777344 9.21875 9.820312 2.539062 12.402344 2.539062 Z M 12.460938 4.527344 C 12.082031 5.207031 11.625 7.179688 11.625 9.289062 C 11.625 11.578125 11.90625 13.324219 12.289062 14.625 C 12.871094 12.953125 13.242188 11.046875 13.242188 9.402344 C 13.242188 6.304688 12.753906 4.960938 12.460938 4.527344 Z M 8.652344 13.125 C 6.664062 13.125 6.632812 16.113281 6.632812 16.242188 C 6.632812 17.042969 6.859375 18.921875 8.941406 18.921875 C 9.734375 18.921875 10.53125 18.132812 11.222656 16.960938 C 10.804688 16.148438 10.4375 15.128906 10.183594 13.847656 C 10.132812 13.808594 10.085938 13.777344 10.039062 13.730469 C 10.039062 13.730469 9.441406 13.125 8.652344 13.125 Z M 8.652344 13.125 "/>
</g>
</svg>
